<svg width="22" height="20" viewBox="0 0 22 20" fill="none" xmlns="http://www.w3.org/2000/svg">
<path d="M21.3848 18.5775L15.4307 12.89C16.584 11.5292 17.2785 9.8 17.2785 7.91668C17.2785 3.55168 13.5603 0 8.99077 0C4.42121 0 0.703125 3.55164 0.703125 7.91664C0.703125 12.2816 4.42125 15.8333 8.99081 15.8333C10.9624 15.8333 12.7726 15.17 14.1972 14.0683L20.1512 19.7558C20.3213 19.9183 20.5447 20 20.768 20C20.9914 20 21.2147 19.9183 21.3848 19.7558C21.7259 19.43 21.7259 18.9033 21.3848 18.5775ZM8.99081 14.1666C5.38261 14.1666 2.44791 11.3633 2.44791 7.91664C2.44791 4.46996 5.38261 1.66664 8.99081 1.66664C12.599 1.66664 15.5337 4.46996 15.5337 7.91664C15.5337 11.3633 12.599 14.1666 8.99081 14.1666Z" fill="black"/>
</svg>
